<svg width="260" height="64" viewBox="0 0 260 64" fill="none" xmlns="http://www.w3.org/2000/svg" role="img" aria-label="Impulso Learning">
  <defs>
    <linearGradient id="g1" x1="6" y1="6" x2="58" y2="58" gradientUnits="userSpaceOnUse">
      <stop stop-color="#0B68FF"/>
      <stop offset=".55" stop-color="#21C878"/>
      <stop offset="1" stop-color="#F5B84B"/>
    </linearGradient>
    <linearGradient id="g2" x1="68" y1="10" x2="230" y2="54" gradientUnits="userSpaceOnUse">
      <stop stop-color="#0F2557"/>
      <stop offset="1" stop-color="#0B68FF"/>
    </linearGradient>
  </defs>
  <rect x="4" y="4" width="56" height="56" rx="18" fill="url(#g1)"/>
  <path d="M33.5 12.5c8.2 2.8 14.7 9.3 17.5 17.5l-9.3 2.5-4.2 4.3-6.2-6.2 4.2-4.2 2.7-9.4c-1.7-.7-3.1-1.1-4.7-1.4v-3.1Z" fill="white"/>
  <path d="M17 42.5c6.2-1.8 11.6-.9 16.5 4.1l.9.9c-6.1 1.8-11.6.9-16.4-4.1l-1-.9Z" fill="white" opacity=".96"/>
  <path d="M16.5 34.5c6.1-1.7 11.5-.8 16.3 4l.9.9c-6 1.8-11.4.9-16.2-4l-1-.9Z" fill="white" opacity=".78"/>
  <path d="M38.8 23.8 48 14.6" stroke="#0F2557" stroke-width="2.2" stroke-linecap="round" opacity=".3"/>
  <text x="72" y="30" font-family="Inter, Arial, sans-serif" font-size="24" font-weight="900" fill="url(#g2)">Impulso</text>
  <text x="72" y="51" font-family="Inter, Arial, sans-serif" font-size="19" font-weight="800" fill="#21A86C">Learning</text>
  <path d="M183 47h47" stroke="#F5B84B" stroke-width="4" stroke-linecap="round"/>
</svg>
